PathFileType	4	(X/Y/Z)	/Users/itak/Documents/Research/Walk-IL/dataset/trc/00079_00006.trc
DataRate	CameraRate	NumFrames	NumMarkers	Units	OrigDataRate	OrigDataStartFrame	OrigNumFrames
100.000000	100.000000	4	53	mm	100.000000	197	527
Frame#	Time	RPSI			LPSI			L3			STRN			T10			C7			CLAV			RBAK			LBAK			LSHO			LUPA			LAEL			LAOL			LWTS			LWPS			LFRA			LIFD			LHPS			LHTS			RSHO			RUPA			RAEL			RAOL			RWTS			RWPS			RFRA			RIFD			RHTS			RHPS			RBHD			LFHD			RFHD			LBHD			LHIP			RHIP			RASI			LASI			LKNE			LTHI			LANK			LTIP			LTOE			LMT1			LMT5			LHEE			RKNE			RTHI			RANK			RTIP			RTOE			RMT1			RMT5			RHEE			
		X1	Y1	Z1	X2	Y2	Z2	X3	Y3	Z3	X4	Y4	Z4	X5	Y5	Z5	X6	Y6	Z6	X7	Y7	Z7	X8	Y8	Z8	X9	Y9	Z9	X10	Y10	Z10	X11	Y11	Z11	X12	Y12	Z12	X13	Y13	Z13	X14	Y14	Z14	X15	Y15	Z15	X16	Y16	Z16	X17	Y17	Z17	X18	Y18	Z18	X19	Y19	Z19	X20	Y20	Z20	X21	Y21	Z21	X22	Y22	Z22	X23	Y23	Z23	X24	Y24	Z24	X25	Y25	Z25	X26	Y26	Z26	X27	Y27	Z27	X28	Y28	Z28	X29	Y29	Z29	X30	Y30	Z30	X31	Y31	Z31	X32	Y32	Z32	X33	Y33	Z33	X34	Y34	Z34	X35	Y35	Z35	X36	Y36	Z36	X37	Y37	Z37	X38	Y38	Z38	X39	Y39	Z39	X40	Y40	Z40	X41	Y41	Z41	X42	Y42	Z42	X43	Y43	Z43	X44	Y44	Z44	X45	Y45	Z45	X46	Y46	Z46	X47	Y47	Z47	X48	Y48	Z48	X49	Y49	Z49	X50	Y50	Z50	X51	Y51	Z51	X52	Y52	Z52	X53	Y53	Z53	

198	1.97	-884.3497314453125	1019.085083007812	414.3966674804688	-915.6959838867188	1013.078186035156	242.6039276123047	-896.1724853515625	1079.02978515625	321.9577941894531	-634.7603759765625	1266.87548828125	284.9824523925781	-903.3740234375	1212.986206054688	316.7564697265625	-833.8478393554688	1476.912353515625	305.4811401367188	-660.3663330078125	1382.8486328125	285.62060546875	-892.2821044921875	1341.4404296875	388.5433959960938	-869.6802368164062	1440.94677734375	208.9788055419922	-777.007080078125	1443.341674804688	124.4885864257812	-813.3297729492188	1321.957275390625	46.33260345458984	-815.7044677734375	1110.086303710938	10.55090808868408	-861.2515258789062	1092.306030273438	105.9093856811523	-720.83056640625	866.8267822265625	41.18018341064453	-791.4896240234375	858.9197998046875	-3.460771560668945	-801.87060546875	1000.904418945312	-6.307848453521729	-710.837158203125	679.6339111328125	49.09191513061523	-761.6599731445312	778.4154052734375	-9.71703052520752	-701.9929809570312	783.9882202148438	28.71660041809082	-750.798583984375	1439.638549804688	471.4127197265625	-758.7442016601562	1372.381591796875	536.4900512695312	-796.1646728515625	1114.604736328125	587.6535034179688	-793.5540161132812	1086.835327148438	491.1997375488281	-660.0753173828125	862.2833862304688	529.8021850585938	-720.4520263671875	845.4235229492188	590.5474243164062	-783.4956665039062	1031.909301757812	596.4281616210938	-652.7857055664062	675.7572021484375	510.7203979492188	-633.5803833007812	763.6744384765625	524.8925170898438	-679.236572265625	758.6499633789062	586.1516723632812	-791.6987915039062	1668.398315429688	272.2131042480469	-577.520263671875	1663.266479492188	301.4975891113281	-633.6875610351562	1669.8583984375	188.7726287841797	-723.8421020507812	1652.369873046875	391.3061218261719	-822.1648559570312	951.3458251953125	139.7825012207031	-811.4564819335938	944.0452880859375	482.9048461914062	-691.2228393554688	961.7445678710938	446.2202758789062	-704.666259765625	961.188720703125	178.6105041503906	-648.2324829101562	509.475341796875	215.3000640869141	-713.8112182617188	635.6192626953125	166.2286834716797	-733.893310546875	47.97851181030273	239.0303192138672	-693.2465209960938	259.8802795410156	214.7460784912109	-527.4733276367188	44.04869842529297	237.7475891113281	-574.0388793945312	44.12660598754883	292.4820861816406	-633.2108764648438	42.05915832519531	196.5652160644531	-781.06396484375	46.33638381958008	317.7578125	-701.1738891601562	499.2369689941406	474.4264831542969	-720.8684692382812	772.480224609375	483.7197570800781	-1102.17578125	213.3323669433594	503.3994140625	-785.3987426757812	407.1608276367188	489.7813415527344	-964.258544921875	61.66919326782227	457.9660034179688	-1002.811828613281	104.9940185546875	420.8003540039062	-1023.11767578125	119.9575500488281	517.044189453125	-1126.732177734375	250.4768524169922	447.27587890625	
199	1.98	-876.1419067382812	1019.280639648438	412.8315124511719	-908.6284790039062	1013.348937988281	241.3577575683594	-889.0282592773438	1079.688598632812	320.2919006347656	-627.7108764648438	1267.681640625	282.4179382324219	-896.4138793945312	1213.45849609375	314.4749145507812	-826.993408203125	1477.467163085938	303.0462646484375	-653.426513671875	1383.607543945312	283.1723327636719	-885.1939697265625	1341.939697265625	386.1406555175781	-862.8446044921875	1441.486083984375	206.5016784667969	-770.096923828125	1443.944580078125	122.0608139038086	-805.5908813476562	1322.358642578125	43.76121520996094	-806.1246948242188	1110.532104492188	7.797549724578857	-852.4686889648438	1092.33642578125	102.7422332763672	-710.5180053710938	867.6055297851562	38.65728759765625	-780.683837890625	859.571533203125	-6.706714153289795	-791.6534423828125	1001.489868164062	-9.167375564575195	-699.7755126953125	680.45166015625	45.97108840942383	-750.3987426757812	779.254638671875	-12.95264053344727	-691.1239624023438	784.9510498046875	26.07781219482422	-743.8276977539062	1440.081420898438	469.0093383789062	-751.7321166992188	1372.83935546875	533.9930419921875	-789.281494140625	1115.209350585938	585.4522705078125	-786.3666381835938	1087.192260742188	489.057861328125	-653.2940673828125	862.56396484375	528.9142456054688	-713.7958984375	846.0266723632812	589.5646362304688	-776.6610107421875	1032.61328125	594.4915161132812	-645.9171142578125	675.9929809570312	510.7005920410156	-626.7415161132812	763.9360961914062	524.5468139648438	-672.6054077148438	759.2291259765625	585.6640014648438	-784.3291625976562	1669.109497070312	269.9408264160156	-570.0639038085938	1663.577026367188	297.923583984375	-626.8657836914062	1670.046752929688	185.5467071533203	-715.8320922851562	1653.200561523438	388.6466369628906	-815.7473754882812	951.6401977539062	137.8711853027344	-802.4242553710938	944.595458984375	480.8674621582031	-682.7371215820312	962.830810546875	443.0579833984375	-698.1998291015625	961.6153564453125	175.5384521484375	-644.8770751953125	508.7421569824219	214.2746276855469	-709.5798950195312	635.324951171875	165.0208740234375	-733.952392578125	48.04833221435547	239.0640106201172	-691.6510620117188	259.5089416503906	214.3741760253906	-527.422119140625	44.04975509643555	237.9057006835938	-574.0626831054688	43.98354721069336	292.577392578125	-633.1921997070312	42.0823860168457	196.6228942871094	-781.1177368164062	46.37693405151367	317.8282775878906	-681.8475341796875	501.1839599609375	470.5820617675781	-708.0206298828125	774.0663452148438	480.6107177734375	-1081.563598632812	213.6900939941406	502.0198669433594	-765.4464721679688	408.7859802246094	486.2773742675781	-941.1427612304688	64.72188568115234	455.608642578125	-980.9304809570312	107.0464782714844	418.8457336425781	-1000.483093261719	122.0635833740234	515.1966552734375	-1107.289428710938	250.3029479980469	446.0053405761719	
200	1.99	-867.906982421875	1019.61376953125	411.2518005371094	-901.5451049804688	1013.715393066406	240.1235046386719	-881.8402709960938	1080.3369140625	318.6434631347656	-620.7185668945312	1268.560302734375	279.8752136230469	-889.5086669921875	1213.936767578125	312.3094787597656	-820.19677734375	1478.02490234375	300.7169494628906	-646.560791015625	1384.4326171875	280.7643737792969	-878.1279296875	1342.428588867188	383.8289489746094	-856.1353759765625	1442.054931640625	204.1416778564453	-763.3502807617188	1444.633056640625	119.7191314697266	-798.0363159179688	1322.833374023438	41.30682754516602	-796.6195068359375	1111.072265625	5.226925373077393	-843.65869140625	1092.432250976562	99.80164337158203	-700.1912231445312	868.4934692382812	36.18777084350586	-769.8746337890625	860.35693359375	-9.861926078796387	-781.4819946289062	1002.186401367188	-11.87784004211426	-688.7262573242188	681.3680419921875	42.79157257080078	-739.1410522460938	780.2296752929688	-16.16004943847656	-680.2435302734375	786.0196533203125	23.43963241577148	-736.9266357421875	1440.581787109375	466.6719055175781	-744.7819213867188	1373.364868164062	531.5692749023438	-782.5278930664062	1115.891235351562	583.2464599609375	-779.258544921875	1087.639892578125	486.8995056152344	-646.6360473632812	862.9022827148438	528.08984375	-707.3326416015625	846.698486328125	588.587158203125	-769.976318359375	1033.381713867188	592.552001953125	-639.2445068359375	676.2811889648438	510.7021789550781	-620.0972290039062	764.2445678710938	524.2518920898438	-666.2246704101562	759.8580932617188	585.2100830078125	-776.986083984375	1669.883911132812	267.7476196289062	-562.635986328125	1663.859375	294.4189147949219	-620.090576171875	1670.212280273438	182.3904876708984	-707.8522338867188	1654.068603515625	386.0559692382812	-809.410888671875	951.9837036132812	135.9382476806641	-793.412109375	945.2950439453125	478.8951416015625	-674.197021484375	964.0202026367188	439.8824768066406	-691.7857055664062	962.0457153320312	172.4711151123047	-641.72900390625	508.0075988769531	213.1950225830078	-705.5202026367188	635.0458984375	163.7885284423828	-734.0027465820312	48.09849548339844	239.0929260253906	-690.1746215820312	259.1496276855469	213.9630584716797	-527.3699951171875	44.04864501953125	238.0273132324219	-574.0794677734375	43.87807464599609	292.62548828125	-633.180908203125	42.09341812133789	196.6616821289062	-781.1832275390625	46.41401290893555	317.8822021484375	-662.7733154296875	503.3937377929688	466.4097900390625	-695.2434692382812	775.749267578125	477.3729858398438	-1060.141357421875	212.8580322265625	500.4693603515625	-745.5133056640625	410.3970031738281	482.4989013671875	-916.8137817382812	67.22408294677734	452.9947814941406	-957.9685668945312	108.2673187255859	416.6298522949219	-976.8326416015625	123.2768096923828	513.080322265625	-1087.17822265625	248.8091278076172	444.59423828125	
201	2	-859.6688842773438	1020.037048339844	409.6495361328125	-894.4420166015625	1014.157348632812	238.8948974609375	-874.6180419921875	1080.969604492188	316.9846801757812	-613.7744140625	1269.484130859375	277.3489074707031	-882.6119995117188	1214.410522460938	310.2381896972656	-813.4373168945312	1478.58203125	298.4852905273438	-639.7518310546875	1385.30078125	278.3908996582031	-871.0786743164062	1342.89990234375	381.5946044921875	-849.5249633789062	1442.644287109375	201.8882904052734	-756.74169921875	1445.397094726562	117.453498840332	-790.658447265625	1323.379028320312	38.95570373535156	-787.2398071289062	1111.697387695312	2.826263427734375	-834.8256225585938	1092.5947265625	97.09837341308594	-689.8534545898438	869.5032348632812	33.75749969482422	-759.1005249023438	861.2583618164062	-12.89044761657715	-771.4154663085938	1002.979553222656	-14.44339466094971	-677.6495361328125	682.3951416015625	39.58042144775391	-727.9223022460938	781.3267211914062	-19.30611610412598	-669.3643188476562	787.2036743164062	20.79452323913574	-730.06982421875	1441.133422851562	464.3885192871094	-737.8705444335938	1373.9521484375	529.212646484375	-775.8783569335938	1116.646850585938	581.04736328125	-772.2177734375	1088.173828125	484.7426147460938	-640.0927124023438	863.2992553710938	527.307861328125	-701.041015625	847.4345703125	587.60498046875	-763.41748046875	1034.209228515625	590.6187744140625	-632.7906494140625	676.6133422851562	510.6907043457031	-613.65380859375	764.5982055664062	523.9818725585938	-660.079345703125	760.5338745117188	584.7664184570312	-769.66796875	1670.706420898438	265.6355895996094	-555.2376708984375	1664.119262695312	290.9886779785156	-613.3585205078125	1670.361694335938	179.3066253662109	-699.90234375	1654.960327148438	383.5320129394531	-803.157958984375	952.35986328125	133.9746856689453	-784.4334716796875	946.0922241210938	476.9603271484375	-665.5873413085938	965.285400390625	436.6917114257812	-685.40478515625	962.4625244140625	169.4153442382812	-638.768798828125	507.2710571289062	212.0743865966797	-701.6153564453125	634.7777099609375	162.5384674072266	-734.0364990234375	48.13191986083984	239.1255340576172	-688.8214111328125	258.8033142089844	213.5232849121094	-527.3150024414062	44.04222869873047	238.1212921142578	-574.0886840820312	43.79891967773438	292.6395568847656	-633.173095703125	42.09534454345703	196.6884155273438	-781.24853515625	46.44433212280273	317.9305114746094	-644.0250244140625	505.833251953125	461.9103393554688	-682.6071166992188	777.5123291015625	474.0397033691406	-1037.946411132812	210.8671112060547	498.7654724121094	-725.6475830078125	411.9587097167969	478.4365844726562	-891.3588256835938	69.15663146972656	450.1141052246094	-934.0418701171875	108.6802368164062	414.1300048828125	-952.2194213867188	123.6388473510742	510.6983642578125	-1066.42578125	246.0245666503906	443.0772399902344	
